<?xml version="1.0" encoding="UTF-8"?> <svg xmlns="http://www.w3.org/2000/svg" width="200" height="39" viewBox="0 0 200 39" fill="none"> <g clip-path="url(#clip0)"> <path d="M19.8479 36.7862H19.4278V33.0768H16.8583V36.7862H16.446V32.6743H19.8479V36.7862Z" fill="black"></path> <path d="M21.4539 34.7298C21.4539 33.5132 22.3771 32.5836 23.6203 32.5836C24.4278 32.5836 25.1196 32.9952 25.4161 33.6365L25.078 33.8339C24.8401 33.3159 24.2796 32.9783 23.6203 32.9783C22.6242 32.9783 21.8739 33.7521 21.8739 34.7298C21.8739 35.7087 22.6242 36.4826 23.6203 36.4826C24.2874 36.4826 24.831 36.1372 25.1027 35.6269L25.4486 35.8321C25.1196 36.4657 24.4278 36.8773 23.6203 36.8773C22.3771 36.8773 21.4539 35.9476 21.4539 34.7298Z" fill="black"></path> <path d="M30.3758 32.6745V36.7864H29.9558V33.3899L27.3355 36.7864H26.974V32.6745H27.3849V36.071L30.013 32.6745H30.3758Z" fill="black"></path> <path d="M35.1027 36.7864L33.7113 34.9933L32.3199 36.7864H31.8167L33.4642 34.6727L31.9155 32.6745H32.4174L33.7113 34.3442L35.013 32.6745H35.5072L33.9662 34.6649L35.606 36.7864H35.1027Z" fill="black"></path> <path fill-rule="evenodd" clip-rule="evenodd" d="M36.5201 34.7298C36.5201 33.5132 37.4837 32.5836 38.6866 32.5836C39.8816 32.5836 40.8452 33.5132 40.8452 34.7298C40.8452 35.9476 39.8816 36.8773 38.6866 36.8773C37.4837 36.8773 36.5201 35.9476 36.5201 34.7298ZM40.4252 34.7298C40.4252 33.7521 39.6671 32.9783 38.6866 32.9783C37.7061 32.9783 36.9402 33.7521 36.9402 34.7298C36.9402 35.7087 37.7061 36.4826 38.6866 36.4826C39.6671 36.4826 40.4252 35.7087 40.4252 34.7298Z" fill="black"></path> <path fill-rule="evenodd" clip-rule="evenodd" d="M46.4954 32.6745V36.7864H46.0754V35.8567C45.7295 36.4735 45.0949 36.8773 44.3043 36.8773C43.1352 36.8773 42.1716 35.9476 42.1716 34.7298C42.1716 33.5132 43.1352 32.5836 44.3043 32.5836C45.0949 32.5836 45.7295 32.9874 46.0754 33.6041V32.6745H46.4954ZM46.0754 34.7298C46.0754 33.7521 45.3173 32.9783 44.3381 32.9783C43.3576 32.9783 42.5917 33.7521 42.5917 34.7298C42.5917 35.7087 43.3576 36.4826 44.3381 36.4826C45.3173 36.4826 46.0754 35.7087 46.0754 34.7298Z" fill="black"></path> <path d="M51.7841 32.6745V36.7864H51.3641V34.9271H48.7945V36.7864H48.3823V32.6745H48.7945V34.5337H51.3641V32.6745H51.7841Z" fill="black"></path> <path fill-rule="evenodd" clip-rule="evenodd" d="M57.7152 32.6745V36.7864H57.2952V35.8567C56.948 36.4735 56.3147 36.8773 55.5241 36.8773C54.3537 36.8773 53.3901 35.9476 53.3901 34.7298C53.3901 33.5132 54.3537 32.5836 55.5241 32.5836C56.3147 32.5836 56.948 32.9874 57.2952 33.6041V32.6745H57.7152ZM57.2952 34.7298C57.2952 33.7521 56.5371 32.9783 55.5566 32.9783C54.5761 32.9783 53.8102 33.7521 53.8102 34.7298C53.8102 35.7087 54.5761 36.4826 55.5566 36.4826C56.5371 36.4826 57.2952 35.7087 57.2952 34.7298Z" fill="black"></path> <path d="M62.9454 36.7864H62.5331V33.077H60.4577V35.0596C60.4577 36.4981 59.8478 36.8435 59.0741 36.7864V36.3995C59.7087 36.4579 60.0455 36.1203 60.0455 35.0596V32.6745H62.9454V36.7864Z" fill="black"></path> <path d="M68.2341 32.6745V36.7864H67.8141V33.3899L65.1938 36.7864H64.8323V32.6745H65.2445V36.071L67.8713 32.6745H68.2341Z" fill="black"></path> <path d="M73.0039 33.077H71.5046V36.7864H71.0924V33.077H69.593V32.6745H73.0039V33.077Z" fill="black"></path> <path d="M77.7646 32.6745V36.7864H77.3446V33.3899L74.7243 36.7864H74.3628V32.6745H74.775V36.071L77.4018 32.6745H77.7646Z" fill="black"></path> <path d="M82.8063 32.6745V36.7864H82.3863V35.1751C82.0235 35.3556 81.5787 35.4465 81.134 35.4465C80.0872 35.4465 79.4865 34.9531 79.4865 34.0144V32.6745H79.8987V34.0144C79.8987 34.7298 80.3343 35.0518 81.1171 35.0518C81.554 35.0518 81.9988 34.9609 82.3863 34.7882V32.6745H82.8063Z" fill="black"></path> <path fill-rule="evenodd" clip-rule="evenodd" d="M88.58 34.7466C88.58 34.8129 88.5709 34.8791 88.5709 34.944H84.8401C84.9389 35.8736 85.6476 36.4826 86.5865 36.4826C87.2614 36.4826 87.7725 36.1696 88.0117 35.7334L88.3745 35.9476C88.0364 36.5072 87.394 36.8773 86.5787 36.8773C85.3095 36.8773 84.4122 35.9723 84.4122 34.7298C84.4122 33.521 85.2848 32.5836 86.5449 32.5836C87.7972 32.5836 88.58 33.6197 88.58 34.7466ZM84.8401 34.5415H88.1509C88.0612 33.5379 87.3524 32.9783 86.5449 32.9783C85.606 32.9783 84.9233 33.6288 84.8401 34.5415Z" fill="black"></path> <path d="M89.8816 34.7298C89.8816 33.5132 90.8036 32.5836 92.048 32.5836C92.8556 32.5836 93.5474 32.9952 93.8439 33.6365L93.5058 33.8339C93.2665 33.3159 92.706 32.9783 92.048 32.9783C91.0506 32.9783 90.3016 33.7521 90.3016 34.7298C90.3016 35.7087 91.0506 36.4826 92.048 36.4826C92.7151 36.4826 93.2587 36.1372 93.5305 35.6269L93.8764 35.8321C93.5474 36.4657 92.8556 36.8773 92.048 36.8773C90.8036 36.8773 89.8816 35.9476 89.8816 34.7298Z" fill="black"></path> <path d="M97.9948 36.7864L95.8127 34.7635V36.7864H95.4005V32.6745H95.8127V34.5415L97.896 32.6745H98.4733L96.2575 34.648L98.5553 36.7864H97.9948Z" fill="black"></path> <path fill-rule="evenodd" clip-rule="evenodd" d="M99.3057 34.7298C99.3057 33.5132 100.269 32.5836 101.472 32.5836C102.666 32.5836 103.629 33.5132 103.629 34.7298C103.629 35.9476 102.666 36.8773 101.472 36.8773C100.269 36.8773 99.3057 35.9476 99.3057 34.7298ZM103.209 34.7298C103.209 33.7521 102.453 32.9783 101.472 32.9783C100.492 32.9783 99.7257 33.7521 99.7257 34.7298C99.7257 35.7087 100.492 36.4826 101.472 36.4826C102.453 36.4826 103.209 35.7087 103.209 34.7298Z" fill="black"></path> <path fill-rule="evenodd" clip-rule="evenodd" d="M109.124 34.7466C109.124 34.8129 109.116 34.8791 109.116 34.944H105.385C105.484 35.8736 106.191 36.4826 107.13 36.4826C107.806 36.4826 108.317 36.1696 108.555 35.7334L108.918 35.9476C108.58 36.5072 107.938 36.8773 107.122 36.8773C105.854 36.8773 104.956 35.9723 104.956 34.7298C104.956 33.521 105.83 32.5836 107.09 32.5836C108.342 32.5836 109.124 33.6197 109.124 34.7466ZM105.385 34.5415H108.696C108.605 33.5379 107.897 32.9783 107.09 32.9783C106.151 32.9783 105.467 33.6288 105.385 34.5415Z" fill="black"></path> <path d="M113.243 34.7298C113.243 33.5132 114.165 32.5836 115.41 32.5836C116.216 32.5836 116.908 32.9952 117.204 33.6365L116.867 33.8339C116.628 33.3159 116.068 32.9783 115.41 32.9783C114.412 32.9783 113.663 33.7521 113.663 34.7298C113.663 35.7087 114.412 36.4826 115.41 36.4826C116.077 36.4826 116.62 36.1372 116.892 35.6269L117.238 35.8321C116.908 36.4657 116.216 36.8773 115.41 36.8773C114.165 36.8773 113.243 35.9476 113.243 34.7298Z" fill="black"></path> <path fill-rule="evenodd" clip-rule="evenodd" d="M118.441 34.7298C118.441 33.5132 119.404 32.5836 120.607 32.5836C121.801 32.5836 122.765 33.5132 122.765 34.7298C122.765 35.9476 121.801 36.8773 120.607 36.8773C119.404 36.8773 118.441 35.9476 118.441 34.7298ZM122.345 34.7298C122.345 33.7521 121.588 32.9783 120.607 32.9783C119.627 32.9783 118.861 33.7521 118.861 34.7298C118.861 35.7087 119.627 36.4826 120.607 36.4826C121.588 36.4826 122.345 35.7087 122.345 34.7298Z" fill="black"></path> <path d="M127.774 36.7864H127.354V33.077H124.783V36.7864H124.372V32.6745H127.774V36.7864Z" fill="black"></path> <path fill-rule="evenodd" clip-rule="evenodd" d="M133.975 34.7298C133.975 35.9476 133.021 36.8772 131.843 36.8772C131.043 36.8772 130.41 36.4657 130.072 35.8321V38.4314H129.659V32.6745H130.072V33.6288C130.41 32.9952 131.043 32.5836 131.843 32.5836C133.021 32.5836 133.975 33.5132 133.975 34.7298ZM133.564 34.7298C133.564 33.7521 132.798 32.9783 131.818 32.9783C130.837 32.9783 130.072 33.7521 130.072 34.7298C130.072 35.7087 130.837 36.4825 131.818 36.4825C132.798 36.4825 133.564 35.7087 133.564 34.7298Z" fill="black"></path> <path fill-rule="evenodd" clip-rule="evenodd" d="M135.311 34.7298C135.311 33.5132 136.274 32.5836 137.477 32.5836C138.671 32.5836 139.635 33.5132 139.635 34.7298C139.635 35.9476 138.671 36.8773 137.477 36.8773C136.274 36.8773 135.311 35.9476 135.311 34.7298ZM139.215 34.7298C139.215 33.7521 138.458 32.9783 137.477 32.9783C136.497 32.9783 135.731 33.7521 135.731 34.7298C135.731 35.7087 136.497 36.4826 137.477 36.4826C138.458 36.4826 139.215 35.7087 139.215 34.7298Z" fill="black"></path> <path fill-rule="evenodd" clip-rule="evenodd" d="M144.503 35.6516C144.503 36.2761 144.091 36.7864 143.235 36.7864H141.242V32.6745H143.078C143.886 32.6745 144.306 33.151 144.306 33.7521C144.306 34.1546 144.133 34.4922 143.779 34.6649C144.256 34.8207 144.503 35.1829 144.503 35.6516ZM141.653 33.077V34.5H143.078C143.605 34.5 143.886 34.2364 143.886 33.7768C143.886 33.3405 143.597 33.077 143.078 33.077H141.653ZM144.091 35.6347C144.091 35.1829 143.779 34.9025 143.235 34.9025H141.653V36.3839H143.235C143.787 36.3839 144.091 36.1034 144.091 35.6347Z" fill="black"></path> <path fill-rule="evenodd" clip-rule="evenodd" d="M145.755 34.7298C145.755 33.5132 146.719 32.5836 147.922 32.5836C149.116 32.5836 150.079 33.5132 150.079 34.7298C150.079 35.9476 149.116 36.8773 147.922 36.8773C146.719 36.8773 145.755 35.9476 145.755 34.7298ZM149.659 34.7298C149.659 33.7521 148.902 32.9783 147.922 32.9783C146.941 32.9783 146.176 33.7521 146.176 34.7298C146.176 35.7087 146.941 36.4826 147.922 36.4826C148.902 36.4826 149.659 35.7087 149.659 34.7298Z" fill="black"></path> <path d="M155.484 36.7864L153.663 34.7635V36.7864H153.243V34.7635L151.423 36.7864H150.912L152.865 34.648L150.995 32.6745H151.506L153.243 34.5337V32.6745H153.663V34.5337L155.402 32.6745H155.912L154.051 34.648L155.995 36.7864H155.484Z" fill="black"></path> <path fill-rule="evenodd" clip-rule="evenodd" d="M161.39 36.3839V37.8887H160.97V36.7864H157.411V37.8887H156.991V36.3839H157.469C157.757 35.9892 157.922 35.5451 157.922 34.7298V32.6745H160.813V36.3839H161.39ZM160.393 36.3839V33.077H158.334V34.7298C158.334 35.462 158.211 35.9645 157.981 36.3839H160.393Z" fill="black"></path> <path fill-rule="evenodd" clip-rule="evenodd" d="M166.637 34.7466C166.637 34.8129 166.629 34.8791 166.629 34.944H162.897C162.996 35.8736 163.705 36.4826 164.644 36.4826C165.32 36.4826 165.83 36.1696 166.069 35.7334L166.432 35.9476C166.094 36.5072 165.451 36.8773 164.636 36.8773C163.367 36.8773 162.469 35.9723 162.469 34.7298C162.469 33.521 163.342 32.5836 164.603 32.5836C165.854 32.5836 166.637 33.6197 166.637 34.7466ZM162.897 34.5415H166.209C166.118 33.5379 165.41 32.9783 164.603 32.9783C163.663 32.9783 162.981 33.6288 162.897 34.5415Z" fill="black"></path> <path d="M171.62 32.6745V36.7864H171.2V34.9271H168.631V36.7864H168.218V32.6745H168.631V34.5337H171.2V32.6745H171.62Z" fill="black"></path> <path d="M176.909 32.6745V36.7864H176.489V33.3899L173.87 36.7864H173.507V32.6745H173.919V36.071L176.546 32.6745H176.909Z" fill="black"></path> <path fill-rule="evenodd" clip-rule="evenodd" d="M182.684 34.7466C182.684 34.8129 182.675 34.8791 182.675 34.944H178.944C179.043 35.8736 179.752 36.4826 180.69 36.4826C181.365 36.4826 181.876 36.1696 182.116 35.7334L182.477 35.9476C182.14 36.5072 181.498 36.8773 180.681 36.8773C179.413 36.8773 178.516 35.9723 178.516 34.7298C178.516 33.521 179.389 32.5836 180.649 32.5836C181.901 32.5836 182.684 33.6197 182.684 34.7466ZM178.944 34.5415H182.255C182.165 33.5379 181.456 32.9783 180.649 32.9783C179.71 32.9783 179.026 33.6288 178.944 34.5415Z" fill="black"></path> <path fill-rule="evenodd" clip-rule="evenodd" d="M58.2548 25.514H54.2145L53.524 20.8997H48.6111L47.9193 25.514H44.2444L48.3198 0.0817947H54.1781L58.2548 25.514ZM49.1209 17.4486H52.9778L51.0493 4.5871L49.1209 17.4486Z" fill="black"></path> <path d="M65.3498 15.3777L64.1131 17.7031V25.514H60.1105V0.0817947H64.1131V11.1633L69.3537 0.0817947H73.3563L67.788 11.4178L73.3563 25.514H69.2444L65.3498 15.3777Z" fill="black"></path> <path d="M84.8179 25.514H80.8153V0.0817947H93.4421V25.514H89.3667V3.7146H84.8179V25.514Z" fill="black"></path> <path d="M148.062 0.0817947L145.333 18.1394L142.386 0.0817947H136.818V21.8812H127.467V14.4325H132.961V10.7997H127.467V3.7146H134.381V0.0817947H123.463V25.514H136.818H138.251H140.312V7.53047L143.295 25.514H147.081L149.847 7.27599V25.514H153.631V0.0817947H148.062Z" fill="black"></path> <path d="M38.3133 0.0816879V10.9814H33.7646V0.0816879H29.762V21.8473H20.351L27.8829 3.65607V0.129727H0.0168457V3.72748H23.8101L16.2795 21.9201L16.2522 25.5347H30.2639V25.5139H33.7646V14.4662H38.3133V25.5139H42.3888V0.0816879H38.3133Z" fill="black"></path> <path fill-rule="evenodd" clip-rule="evenodd" d="M199.926 14.4027L182.559 14.4157V25.514H178.484V14.4196L173.935 14.4222V25.514H169.932H156.541V0.0817947H167.458V3.7146H160.543V10.7997L169.932 10.7984V0.0817947H173.935V10.7971L178.484 10.7958V0.0817947H182.559V10.7958L199.926 10.7919V14.4027ZM169.932 14.426L160.543 14.4325V21.8812H169.932V14.426Z" fill="black"></path> <path d="M38.2731 14.4987H23.4382L24.8856 10.8231H38.2731V14.4987Z" fill="#399CFF"></path> <path d="M178.429 14.5481H156.518V10.7387H178.429V14.5481Z" fill="#399CFF"></path> <path d="M130.584 14.4429H119.22V10.8075H130.584V14.4429Z" fill="#399CFF"></path> <path fill-rule="evenodd" clip-rule="evenodd" d="M121.607 6.36714V9.67276C121.607 11.732 121.116 13.2952 120.134 14.3598C119.151 15.4271 117.653 15.9594 115.64 15.9594H113.748V25.514H96.3536V0.0817947H107.27V3.7146H100.356V10.7997H105.85V14.4325H100.356V21.8812H109.745V0.0817947H115.64C117.653 0.0817947 119.151 0.614121 120.134 1.68007C121.116 2.74602 121.607 4.30795 121.607 6.36714ZM117.605 6.11267C117.605 5.19213 117.434 4.56372 117.095 4.22356C116.755 3.88468 116.27 3.7146 115.64 3.7146H113.748V12.3253H115.64C116.27 12.3253 116.755 12.1565 117.095 11.8176C117.434 11.4775 117.605 10.8491 117.605 9.92724V6.11267Z" fill="black"></path> <path d="M103.471 14.4429H93.4551V10.8075H103.471V14.4429Z" fill="#399CFF"></path> </g> <defs> <clipPath id="clip0"> <rect width="200" height="38.4314" fill="white"></rect> </clipPath> </defs> </svg> 